P2
# CREATOR: GIMP PNM Filter Version 1.1
127 71
255
205
205
205
205
205
205
205
205
205
205
0
254
0
254
0
0
0
0
0
0
0
0
0
0
0
0
0
0
0
0
0
0
0
0
0
0
0
0
0
0
0
0
0
0
0
0
0
0
0
0
0
0
0
0
0
0
254
254
254
254
254
254
254
254
254
254
254
254
205
205
205
205
205
205
205
205
205
205
205
205
205
205
205
205
205
205
205
254
254
205
205
205
205
205
205
205
205
205
205
205
205
205
205
205
205
205
205
205
205
205
205
205
205
205
205
205
205
205
205
205
205
205
205
205
205
205
205
205
205
205
205
205
205
205
205
205
205
0
0
254
254
254
0
0
0
0
0
0
0
0
0
0
0
0
0
0
0
0
0
0
0
0
0
0
0
0
0
0
0
0
0
0
0
0
0
0
0
0
0
0
0
254
254
254
254
254
254
254
254
254
254
254
254
254
205
205
205
205
205
205
205
205
205
205
205
205
205
205
205
205
205
205
205
205
254
254
205
0
205
205
205
205
205
205
205
205
205
205
205
205
205
205
205
205
205
205
205
205
205
205
205
205
205
205
205
205
205
205
205
205
205
205
205
205
205
205
205
205
205
205
205
205
205
205
0
0
0
254
254
0
0
0
0
0
0
0
0
0
0
0
0
0
0
0
0
0
0
0
0
0
0
0
0
0
0
0
0
0
0
0
0
0
0
0
0
0
254
254
254
254
254
254
254
254
254
254
254
254
254
254
205
205
205
205
205
205
205
205
205
205
205
205
205
205
205
205
205
205
205
205
205
254
254
205
254
205
205
205
205
205
205
205
205
205
205
205
205
205
205
205
205
205
205
205
0
0
0
0
205
205
205
205
205
205
205
205
205
205
205
205
205
205
205
205
205
205
205
205
205
205
205
0
0
254
254
254
254
0
0
0
0
0
0
0
0
0
0
0
0
0
0
0
0
0
0
0
0
0
0
0
0
0
0
0
0
0
0
0
0
0
254
254
254
254
254
254
254
254
254
254
254
254
254
254
254
254
205
205
205
205
205
205
205
205
205
205
205
205
205
205
205
205
205
205
205
205
205
205
254
254
205
205
0
205
205
205
205
205
205
205
205
205
205
0
0
0
0
0
0
0
0
0
0
0
0
205
205
205
205
205
205
205
205
205
205
205
205
205
205
205
205
205
205
205
205
205
205
205
0
0
254
254
254
254
254
0
0
0
0
0
0
0
0
0
0
0
0
0
0
0
0
0
0
0
0
0
0
0
0
0
0
0
0
254
254
254
254
254
254
254
254
254
254
254
254
254
254
254
254
254
254
254
205
205
205
205
205
205
205
205
205
205
205
205
205
205
205
205
205
205
205
205
205
254
0
0
205
205
205
254
0
0
0
0
0
0
0
0
0
0
0
0
0
0
254
254
254
254
254
254
254
0
205
205
205
205
205
205
205
205
205
205
205
205
205
205
205
205
205
205
205
205
205
205
205
205
0
254
254
254
254
254
254
0
0
0
0
0
0
0
0
0
0
0
0
0
0
0
0
0
0
0
0
0
0
0
0
0
254
254
254
254
254
254
254
254
254
254
254
254
254
254
254
254
254
254
254
0
0
205
205
205
205
205
205
205
205
205
205
205
205
205
205
0
254
0
0
254
254
254
0
0
0
0
205
205
0
0
0
0
0
254
254
254
254
254
254
254
254
254
254
254
254
254
254
254
254
254
0
205
205
205
205
205
205
205
205
205
205
205
205
205
205
205
205
205
205
205
205
205
205
205
205
0
254
254
254
254
254
254
254
254
0
0
0
0
0
0
0
0
0
0
0
0
0
0
0
0
0
0
0
0
254
254
254
254
254
254
254
254
254
254
254
254
254
254
254
254
254
254
254
254
254
254
0
0
205
205
205
205
205
205
205
254
0
0
0
0
0
0
0
0
0
0
0
0
0
0
0
0
0
205
205
0
0
254
254
254
254
254
254
254
254
254
254
254
254
254
254
254
254
254
254
254
254
0
205
205
205
205
205
205
205
205
205
205
205
205
205
205
205
205
205
205
205
205
205
205
205
205
0
0
254
254
254
254
254
254
254
254
254
0
0
0
0
0
0
0
0
0
0
0
0
0
0
254
254
254
254
254
254
254
254
254
254
254
254
254
254
254
254
254
254
254
254
254
254
254
254
254
254
0
0
254
0
0
0
0
0
0
0
0
0
0
0
0
0
254
254
254
254
254
254
254
254
0
0
0
205
205
0
0
254
254
254
254
254
254
254
254
254
254
254
254
254
254
254
254
254
254
254
254
0
205
205
205
205
205
205
205
205
205
205
205
205
205
205
205
205
205
205
205
205
205
205
205
205
0
0
0
0
0
0
0
0
0
0
0
0
0
0
0
0
0
0
0
0
0
0
0
0
0
0
0
0
0
0
0
0
0
0
0
0
0
0
0
0
0
0
0
0
0
0
0
0
0
0
0
0
0
0
0
0
0
0
254
254
254
254
254
254
254
254
254
254
254
254
254
254
254
254
254
254
0
0
205
205
0
0
254
254
254
254
254
254
254
254
254
254
254
254
254
254
254
254
254
254
254
254
0
0
205
205
205
205
205
205
205
205
205
205
205
205
205
205
205
205
205
205
205
205
205
205
205
0
0
254
254
254
254
254
254
0
0
0
0
0
0
0
0
0
0
0
0
0
0
0
0
0
0
0
0
0
254
254
254
254
254
254
254
254
254
254
254
254
254
254
254
254
254
254
254
254
254
254
254
254
254
254
254
254
254
254
254
254
254
254
254
254
254
254
254
254
254
254
254
254
254
254
254
0
0
205
205
0
0
254
254
254
254
254
254
254
254
254
254
254
254
254
254
254
254
254
254
254
254
0
0
205
205
205
205
205
205
205
205
205
205
205
205
205
205
205
205
205
205
205
205
205
205
205
0
0
254
254
254
254
254
254
0
0
0
0
0
0
0
0
0
0
0
0
0
0
0
0
0
0
0
0
0
254
254
254
254
254
254
254
254
254
254
254
254
254
254
254
254
254
254
254
254
254
254
254
254
254
254
254
254
254
254
254
254
254
254
254
254
254
254
254
254
254
254
254
254
254
254
254
0
0
205
205
0
0
254
254
254
254
254
254
254
254
254
254
254
254
254
254
254
254
254
254
254
254
0
0
205
205
205
205
205
205
205
205
205
205
205
205
205
205
205
205
205
205
205
205
205
205
205
0
0
254
254
254
254
254
254
0
0
0
0
0
0
0
0
0
0
0
0
0
0
0
0
0
0
0
0
0
254
254
254
254
254
254
254
254
254
254
254
254
254
254
254
254
254
254
254
254
254
254
254
254
254
254
254
254
254
254
254
254
254
254
254
254
254
254
254
254
254
254
254
254
254
254
254
0
0
205
205
0
0
254
254
254
254
254
254
254
254
254
254
254
254
254
254
254
254
254
254
254
254
0
0
0
205
205
205
205
205
205
205
205
205
205
205
205
205
205
205
205
205
205
205
205
205
205
205
0
254
254
254
254
254
254
0
0
0
0
0
0
0
0
0
0
0
0
0
0
0
0
0
0
0
0
0
254
254
254
254
254
254
254
254
254
254
254
254
254
254
254
254
254
254
254
254
254
254
254
254
254
254
254
254
254
254
254
251
251
254
254
254
254
254
254
254
254
254
254
254
254
254
254
0
0
205
205
205
0
254
254
254
254
254
254
254
254
254
254
254
254
254
254
254
254
254
254
254
254
0
0
0
205
205
205
205
205
205
205
205
205
205
205
205
205
205
205
205
205
205
205
205
205
205
205
0
254
254
254
254
254
254
0
0
0
0
0
0
0
0
0
0
0
0
0
0
0
0
0
0
0
0
0
254
254
254
254
254
254
254
254
254
254
254
254
254
254
254
254
254
254
254
254
254
254
254
254
254
254
254
254
254
254
254
254
254
254
254
254
254
254
254
254
254
254
254
254
254
254
254
254
0
205
205
205
0
0
254
254
254
254
254
254
254
254
254
254
254
254
254
254
254
254
254
254
254
0
0
0
205
205
205
205
205
205
205
205
205
205
205
205
205
205
205
205
205
205
205
205
205
205
205
0
254
254
254
254
254
254
0
0
0
0
0
0
0
0
0
0
0
0
0
0
0
0
0
0
0
0
0
254
254
254
254
254
254
254
254
254
254
254
254
254
254
254
254
254
254
254
254
254
254
254
254
254
254
254
254
254
254
254
254
254
254
254
254
254
254
254
254
254
254
254
254
254
254
254
254
0
205
205
205
0
0
254
254
254
254
254
254
254
254
254
254
254
254
254
254
254
254
254
254
254
0
0
0
205
205
205
205
205
205
205
205
205
205
205
205
205
205
205
205
205
205
205
205
205
205
205
0
254
254
254
254
254
254
0
0
0
0
0
0
0
0
0
0
0
0
0
0
0
0
0
0
0
0
0
254
254
254
254
254
254
254
254
254
254
254
254
254
254
254
254
254
254
254
254
254
254
254
254
254
254
254
254
254
254
254
254
254
254
254
254
254
254
254
254
254
254
254
254
254
254
254
254
0
205
205
205
0
0
254
254
254
254
254
254
254
254
254
254
254
254
254
254
254
254
254
254
254
254
0
0
205
205
205
205
205
205
205
205
205
205
205
205
205
205
205
205
205
205
205
205
205
205
205
0
0
254
254
254
254
254
0
0
0
0
0
0
0
0
0
0
0
0
0
0
0
0
0
0
0
0
0
254
254
254
254
254
254
254
254
254
254
254
254
254
254
254
254
254
254
254
254
254
254
254
254
254
254
254
254
254
254
254
254
254
254
239
254
254
254
254
254
254
254
254
254
254
254
254
254
0
0
254
254
0
0
254
254
254
254
254
254
254
254
254
254
254
254
254
254
254
254
254
254
254
254
0
0
205
205
205
205
205
205
205
205
205
205
205
205
205
205
205
205
205
205
205
205
205
205
205
0
0
254
254
254
254
254
0
0
0
0
0
0
0
0
0
0
0
0
0
0
0
0
0
0
0
0
0
254
254
254
254
254
254
254
254
254
254
254
254
254
254
254
254
254
254
254
254
254
254
254
254
0
0
0
0
0
0
0
0
0
0
0
0
254
254
0
254
254
254
254
254
254
254
254
254
0
0
0
0
0
254
254
254
254
254
254
254
254
254
254
254
254
254
254
254
254
254
254
254
254
254
0
0
205
205
205
205
205
205
205
205
205
205
205
205
205
205
205
205
205
205
205
205
205
205
205
0
0
0
254
254
254
254
0
0
0
0
0
0
0
0
0
0
0
0
0
0
0
0
0
0
0
0
0
254
254
254
254
254
254
254
254
254
254
254
254
254
254
254
254
254
254
0
0
0
0
0
0
0
254
254
205
205
205
205
205
205
205
205
0
0
254
0
254
254
254
254
254
254
254
254
254
254
254
254
254
254
254
254
254
254
254
254
254
254
254
254
254
254
254
254
254
254
254
254
254
254
254
0
0
205
205
205
205
205
205
205
205
205
205
205
205
205
205
205
205
205
205
205
205
205
205
205
205
0
254
254
254
254
254
0
0
0
0
0
0
0
0
0
0
0
0
0
0
0
0
0
0
0
0
0
254
254
254
254
254
254
254
254
254
254
254
254
254
254
254
254
254
254
0
205
205
205
205
205
205
205
205
205
205
205
205
205
205
205
205
0
254
254
0
254
254
254
254
254
254
254
254
254
254
254
254
254
254
254
254
254
254
254
254
254
254
254
254
254
254
254
254
254
254
254
254
254
254
254
0
0
205
205
205
205
205
205
205
205
205
205
205
205
205
205
205
205
205
205
205
205
205
205
205
205
0
0
254
254
254
254
0
0
0
0
0
0
0
0
0
0
0
0
0
0
0
0
0
0
0
0
0
254
254
254
254
254
254
254
254
254
254
254
254
254
254
0
205
205
254
0
0
0
0
0
0
205
205
205
205
205
205
0
0
205
205
205
205
0
0
0
254
254
254
254
254
254
254
254
254
254
254
254
254
254
254
254
252
254
254
254
254
254
254
254
254
254
254
254
254
254
254
254
254
254
254
0
0
205
205
205
205
205
205
205
205
205
205
205
205
205
205
205
205
205
205
205
205
205
205
205
205
0
0
254
254
254
254
0
0
0
0
0
0
0
0
0
0
0
0
0
0
0
0
0
0
0
0
0
254
254
254
254
254
254
254
254
254
254
254
254
254
0
0
205
205
254
0
0
0
0
0
0
0
0
0
0
0
0
0
0
0
205
205
205
0
0
0
254
254
254
254
254
254
254
254
254
254
254
254
254
254
254
254
252
254
254
254
254
254
254
254
254
254
254
254
254
254
254
254
254
254
254
0
0
205
205
205
205
205
205
205
205
205
205
205
205
205
205
205
205
205
205
205
205
205
205
205
205
0
0
254
254
254
254
0
0
0
0
0
0
0
0
0
0
0
0
0
0
0
0
0
0
0
0
0
254
254
254
254
254
254
254
254
254
254
254
254
254
254
0
205
205
205
0
0
0
0
0
0
0
0
0
0
0
254
254
254
0
205
205
205
0
0
0
254
254
254
254
254
254
254
254
254
254
254
254
254
254
254
254
254
254
254
254
253
250
254
254
254
254
254
254
254
254
254
254
254
254
254
0
0
205
205
205
205
205
205
205
205
205
205
205
205
205
205
205
205
205
205
205
205
205
205
205
205
0
0
254
254
254
254
0
0
0
0
0
0
0
0
0
0
0
0
0
0
0
0
0
0
0
0
0
254
254
254
254
254
254
254
254
254
254
254
254
254
254
0
205
205
205
0
0
254
254
254
254
254
254
254
254
254
254
254
0
0
205
205
205
0
0
254
254
254
254
254
254
254
254
254
254
254
254
254
254
254
254
254
254
254
254
254
254
254
254
254
254
254
254
254
254
254
254
254
254
254
254
0
0
205
205
205
205
205
205
205
205
205
205
205
205
205
205
205
205
205
205
205
205
205
205
205
205
0
0
254
254
254
254
0
0
0
0
0
0
0
0
0
0
0
0
0
0
0
0
0
0
0
0
0
254
254
254
254
254
254
254
254
254
254
254
254
254
254
0
205
205
205
0
0
254
254
254
254
254
254
254
254
254
254
254
0
0
205
205
205
0
0
254
254
254
254
254
254
254
254
254
254
254
254
254
254
254
254
254
254
254
254
254
254
254
254
254
254
254
254
254
254
254
254
254
254
254
254
0
0
0
205
205
205
205
205
205
205
205
205
205
205
205
205
205
205
205
205
205
205
205
205
205
205
205
0
254
254
254
254
0
0
0
0
0
0
0
0
0
0
0
0
0
0
0
0
0
0
0
0
0
254
254
254
254
254
254
254
254
254
254
254
254
254
254
0
254
205
0
0
0
254
254
254
254
254
254
254
254
254
254
254
0
0
205
205
205
0
0
254
254
254
254
254
254
254
254
254
254
254
254
254
254
254
254
254
254
254
254
254
254
254
254
254
254
254
254
254
254
254
254
254
254
254
254
254
0
0
205
205
205
205
205
205
205
205
205
205
205
205
205
205
205
205
205
205
205
205
205
205
205
205
0
254
254
254
254
0
0
0
0
0
0
0
0
0
0
0
0
0
0
0
0
0
0
0
0
0
248
254
254
254
254
254
254
254
254
254
254
254
254
254
0
0
205
254
0
0
254
254
254
254
254
254
254
254
254
254
254
254
0
205
205
205
0
0
254
254
254
254
254
254
254
254
254
254
254
254
254
254
254
254
254
254
254
254
0
0
0
0
0
254
254
254
254
254
254
254
254
254
254
254
254
0
0
205
205
205
205
205
205
205
205
205
205
205
205
205
205
205
205
205
205
205
205
205
205
205
205
0
254
254
254
254
0
0
0
0
0
0
0
0
0
0
0
0
0
0
0
0
0
0
0
0
0
252
248
254
254
254
254
254
254
254
254
254
254
254
254
254
0
205
254
0
0
254
254
254
254
254
254
254
254
254
254
254
254
0
205
205
205
0
0
254
254
254
254
254
254
254
254
254
254
254
254
254
0
0
0
0
0
0
0
0
0
0
0
0
254
254
254
254
254
254
254
254
254
254
254
254
0
0
205
205
205
205
205
205
205
205
205
205
205
205
205
205
205
205
205
205
205
205
205
205
205
205
0
254
254
254
254
0
0
0
0
0
0
0
0
0
0
0
0
0
0
0
0
0
0
0
0
0
251
250
254
254
254
254
254
254
254
254
254
254
254
254
254
0
254
254
254
0
254
254
254
254
254
254
254
254
254
254
254
254
0
0
205
205
0
0
254
254
254
254
254
0
0
0
0
0
0
0
0
0
0
0
205
205
205
205
205
205
205
205
0
254
254
254
254
254
254
254
254
254
254
254
254
0
0
205
205
205
205
205
205
205
205
205
205
205
205
205
205
205
205
205
205
205
205
205
205
205
205
0
0
254
254
254
0
0
0
0
0
0
0
0
0
0
0
0
0
0
0
0
0
0
0
0
0
246
246
245
254
254
254
254
254
254
254
254
254
254
254
254
0
254
205
254
0
254
254
254
254
254
254
254
254
254
254
254
254
0
0
205
205
0
0
0
0
0
0
0
0
0
0
0
205
205
205
205
205
205
205
205
205
205
205
205
205
205
205
0
254
254
254
254
254
254
254
254
254
254
254
254
0
0
205
205
205
205
205
205
205
205
205
205
205
205
205
205
205
205
205
205
205
205
205
205
205
205
0
0
254
254
254
0
0
0
0
0
0
0
0
0
0
0
0
0
0
0
0
0
0
0
0
0
254
253
252
254
254
254
254
254
254
254
254
254
254
254
254
0
254
205
254
0
0
254
254
254
254
254
254
254
254
254
254
254
0
0
254
254
254
0
0
0
254
205
205
205
205
254
254
205
205
205
205
205
205
205
205
205
205
205
205
0
0
0
254
254
254
254
254
254
254
254
254
254
254
254
254
0
0
205
205
205
205
205
205
205
205
205
205
205
205
205
205
205
205
205
205
205
205
205
205
205
205
0
0
254
254
254
0
0
0
0
0
0
0
0
0
0
0
0
0
0
0
0
0
0
0
0
0
253
252
253
254
254
254
254
254
254
254
254
254
254
254
254
0
0
205
254
0
0
254
254
254
254
254
254
254
254
254
254
254
0
0
205
205
205
0
205
205
205
254
254
254
254
0
0
254
254
254
254
254
0
0
0
0
0
0
0
0
0
254
254
254
254
254
254
254
254
254
254
254
254
254
254
0
0
205
205
205
205
205
205
205
205
205
205
205
205
205
205
205
205
205
205
205
205
205
205
205
205
0
0
254
254
254
0
0
0
0
0
0
0
0
0
0
0
0
0
0
0
0
0
0
0
0
0
253
254
253
254
254
254
254
254
254
254
254
254
254
254
254
0
0
0
205
0
0
254
254
254
254
254
254
254
254
254
254
254
0
0
254
254
254
0
254
0
254
0
0
0
0
0
0
254
0
0
0
0
0
0
0
0
254
254
254
254
254
254
254
254
254
254
254
254
254
254
254
254
254
254
254
0
0
0
205
205
205
205
205
205
205
205
205
205
205
205
205
205
205
205
205
205
205
205
205
205
205
205
0
254
254
254
0
0
0
0
0
0
0
0
0
0
0
0
0
0
0
0
0
0
0
0
0
254
253
254
254
254
254
254
254
254
254
254
254
254
254
254
254
0
0
205
0
0
254
254
254
254
254
254
254
254
254
254
254
0
0
0
0
0
0
0
0
0
0
0
0
0
0
0
205
205
254
0
254
254
254
254
254
254
254
254
254
254
254
254
254
254
254
254
254
254
254
254
254
254
254
254
0
0
0
205
205
205
205
205
205
205
205
205
205
205
205
205
205
205
205
205
205
205
205
205
205
205
205
0
254
254
254
0
0
0
0
0
0
0
0
0
0
0
0
0
0
0
0
0
0
0
0
0
252
253
250
254
254
254
254
254
254
254
254
254
254
254
254
254
0
0
205
0
0
254
254
254
254
254
254
254
254
254
254
254
254
0
0
0
0
0
254
254
254
254
254
254
254
0
0
205
205
0
0
254
254
254
254
254
254
254
254
254
254
254
254
254
254
254
254
254
254
254
254
254
254
254
254
0
0
0
205
205
205
205
205
205
205
205
205
205
205
205
205
205
205
205
205
205
205
205
205
205
205
205
0
254
254
254
0
0
0
0
0
0
0
0
0
0
0
0
0
0
0
0
0
0
0
0
0
251
251
254
254
254
254
254
254
254
254
254
254
254
254
254
254
0
254
205
0
0
254
254
254
254
254
254
254
254
254
254
254
254
254
254
254
254
254
254
254
254
254
254
254
254
0
0
205
205
0
0
254
254
254
254
254
254
254
254
254
254
254
254
254
254
254
254
254
254
254
254
254
254
254
254
0
0
0
205
205
205
205
205
205
205
205
205
205
205
205
205
205
205
205
205
205
205
205
205
205
205
205
0
0
254
254
0
0
0
0
0
0
0
0
0
0
0
0
0
0
0
0
0
0
0
0
0
254
254
254
254
254
254
254
254
254
254
254
254
254
254
254
254
0
254
205
0
0
254
254
254
254
254
254
254
254
254
254
254
254
254
254
254
254
254
254
254
254
254
254
254
254
0
0
205
205
254
0
254
254
254
254
254
254
254
254
254
254
254
254
254
254
254
254
254
254
254
254
254
254
254
254
0
0
0
205
205
205
205
205
205
205
205
205
205
205
205
205
205
205
205
205
205
205
205
205
205
205
205
0
0
254
254
0
0
0
0
0
0
0
0
0
0
0
0
0
0
0
0
0
0
0
0
0
254
254
254
254
254
254
254
254
254
254
254
254
254
254
254
254
0
254
254
0
0
254
254
254
254
254
254
254
254
254
254
254
254
254
254
254
254
254
254
254
254
254
254
254
254
254
0
205
205
205
0
254
254
254
254
254
254
254
254
254
254
254
254
254
254
254
254
254
254
254
254
254
254
254
254
0
0
0
205
205
205
205
205
205
205
205
205
205
205
205
205
205
205
205
205
205
205
205
205
205
205
205
0
0
254
254
0
0
0
0
0
0
0
0
0
0
0
0
0
0
0
0
0
0
0
0
0
254
254
254
254
254
254
254
254
254
254
254
254
254
254
254
254
0
254
254
205
0
254
254
254
254
254
254
254
254
254
254
254
254
254
254
254
254
254
254
254
254
254
254
254
254
254
0
205
205
205
0
254
254
254
254
254
254
254
254
254
254
254
254
254
254
254
254
254
254
254
254
254
254
254
254
0
0
0
205
205
205
205
205
205
205
205
205
205
205
205
205
205
205
205
205
205
205
205
205
205
205
205
0
0
254
254
0
0
0
0
0
0
0
0
0
0
0
0
0
0
0
0
0
0
0
0
0
254
254
254
254
254
254
254
254
254
254
254
254
254
254
254
254
0
254
254
205
0
254
254
254
254
254
254
254
254
254
254
254
254
254
254
254
254
254
254
254
254
254
254
254
254
254
0
205
205
205
0
254
254
254
254
254
254
254
254
254
254
254
254
254
254
254
254
254
254
254
254
254
254
254
254
0
0
0
205
205
205
205
205
205
205
205
205
205
205
205
205
205
205
205
205
205
205
205
205
205
205
205
0
0
254
254
254
0
0
0
0
0
0
0
0
0
0
0
0
0
0
0
0
0
0
0
0
0
254
254
254
254
254
254
254
254
254
254
254
254
254
254
254
0
0
254
254
0
254
254
254
254
254
254
254
254
254
254
254
254
254
254
254
254
254
254
254
254
254
254
254
254
254
0
205
205
205
0
254
254
254
254
254
254
254
254
254
254
254
254
254
254
254
254
254
254
254
254
0
0
0
0
0
0
0
0
205
205
205
205
205
205
205
205
205
205
205
205
205
205
205
205
205
205
205
205
205
205
205
0
0
254
254
254
0
0
0
0
0
0
0
0
0
0
0
0
0
0
0
0
0
0
0
0
0
254
254
254
254
254
254
254
254
254
254
254
254
254
254
254
0
0
254
254
0
0
254
254
254
254
254
254
254
254
254
254
254
254
254
254
254
254
254
254
254
254
254
254
254
254
0
0
0
0
0
254
254
254
254
254
254
254
254
254
254
254
254
254
254
254
0
0
0
0
0
0
0
0
0
0
0
0
205
205
205
205
205
205
205
205
205
205
205
205
205
205
205
205
205
205
205
205
205
205
205
205
205
0
254
254
254
0
0
0
0
0
0
0
0
0
0
0
0
0
0
0
0
0
0
0
0
0
0
254
254
254
254
254
254
254
254
254
254
254
254
254
254
254
0
254
254
0
0
254
254
254
254
254
254
254
254
254
254
254
254
254
254
254
254
254
254
254
254
254
254
254
254
0
254
254
254
254
254
254
254
254
254
254
254
254
254
254
254
0
0
0
0
0
0
205
205
205
205
205
205
205
205
205
205
205
205
205
205
205
205
205
205
205
205
205
205
205
205
205
205
205
205
205
205
205
205
205
205
205
0
254
254
254
254
0
0
0
0
0
0
0
0
0
0
0
0
0
0
0
0
0
0
0
0
0
254
254
254
254
254
254
254
254
254
254
254
254
254
254
254
0
254
254
0
0
254
254
254
254
254
254
254
254
254
254
254
254
254
254
254
254
254
254
254
254
254
254
254
254
254
254
254
254
254
254
254
254
254
254
254
254
254
254
254
254
0
0
205
205
205
205
205
205
205
205
205
205
254
0
205
205
205
205
205
205
205
205
205
205
205
205
205
205
205
205
205
205
205
205
205
205
205
205
205
205
205
0
0
254
254
254
0
0
0
0
0
0
0
0
0
0
0
0
0
0
0
0
0
0
0
0
0
254
254
254
254
254
254
254
254
254
254
254
254
254
254
254
0
254
254
0
0
254
254
254
254
254
254
254
254
254
254
254
254
254
254
254
254
254
254
254
254
254
254
254
254
254
254
254
254
254
254
254
254
254
254
254
254
254
254
254
254
0
0
205
205
205
205
205
205
205
254
254
254
0
0
0
205
205
205
205
205
205
205
205
205
205
205
205
205
205
205
205
205
205
205
205
205
205
205
205
205
205
0
0
254
254
254
0
0
0
0
0
0
0
0
0
0
0
0
0
0
0
0
0
0
0
0
0
0
254
254
254
254
254
254
254
254
254
254
254
254
254
254
254
0
0
0
254
254
254
254
254
254
254
254
254
254
254
254
0
254
254
0
0
254
254
254
254
254
254
254
254
254
254
254
254
254
254
254
254
254
254
254
254
254
254
254
254
0
0
205
205
205
205
254
254
254
254
254
254
0
0
0
205
205
205
205
205
205
205
205
205
205
205
205
205
205
205
205
205
205
205
205
205
205
205
205
205
205
0
0
254
254
254
254
0
0
0
0
0
0
0
0
0
0
0
0
0
0
0
0
0
0
0
0
0
254
254
254
254
254
254
254
254
254
254
254
254
254
254
254
254
254
254
254
254
254
254
254
254
254
254
254
254
254
254
0
205
205
0
0
254
254
254
254
254
254
254
254
254
254
254
254
254
254
254
254
254
254
254
254
254
254
254
254
0
0
254
254
254
254
254
254
254
254
254
254
254
0
0
205
205
205
205
205
205
205
205
205
205
205
205
205
205
205
205
205
205
205
205
205
205
205
205
205
205
205
0
254
254
254
254
0
0
0
0
0
0
0
0
0
0
0
0
0
0
0
0
0
0
0
0
0
0
254
254
254
254
254
254
254
254
254
254
254
254
254
254
254
254
254
254
254
254
254
254
254
254
254
254
254
254
254
0
0
205
0
0
254
254
254
254
254
254
254
254
254
254
254
254
254
254
254
254
254
254
254
254
254
254
254
254
254
254
254
254
254
254
254
254
254
254
254
254
254
0
0
0
205
205
205
205
205
205
205
205
205
205
205
205
205
205
205
205
205
205
205
205
205
205
205
205
205
205
0
254
254
254
254
254
0
0
0
0
0
0
0
0
0
0
0
0
0
0
0
0
0
0
0
0
0
254
254
254
254
254
254
254
254
254
254
254
254
254
254
254
254
254
254
254
254
254
254
254
254
254
254
254
254
254
0
0
205
205
0
254
254
254
254
254
254
254
254
254
254
254
254
254
254
254
254
254
254
254
254
254
254
254
254
254
254
254
254
254
254
254
254
254
254
254
254
254
0
0
205
205
205
205
205
205
205
205
205
205
205
205
205
205
205
205
205
205
205
205
205
205
205
205
205
205
205
0
254
254
254
254
254
0
0
0
0
0
0
0
0
0
0
0
0
0
0
0
0
0
0
0
0
0
254
254
254
254
254
254
254
254
254
254
254
254
254
254
254
254
254
254
254
254
254
254
254
254
254
254
254
254
254
0
0
205
205
0
254
254
254
254
254
254
254
254
254
254
254
254
254
254
254
254
254
254
254
254
254
254
254
254
254
254
254
254
254
254
254
254
254
254
254
254
254
254
0
205
205
205
205
205
205
205
205
205
205
205
205
205
205
205
205
205
205
205
205
205
205
205
205
205
205
205
0
0
254
254
254
254
0
0
0
0
0
0
0
0
0
0
0
0
0
0
0
0
0
0
0
0
0
254
254
254
254
254
254
254
254
254
254
254
254
254
254
254
254
254
254
254
254
254
254
254
254
254
254
254
254
254
0
0
205
205
0
254
254
254
254
254
254
254
254
254
254
254
254
254
254
254
254
254
254
254
254
254
254
254
254
254
254
254
254
254
254
254
254
254
254
254
254
254
254
0
205
205
205
205
205
205
205
205
205
205
205
205
205
205
205
205
205
205
205
205
205
205
205
205
205
0
254
0
0
254
254
254
254
0
0
0
0
0
0
0
0
0
0
0
0
0
0
0
0
0
0
0
0
0
254
254
254
254
254
254
254
254
254
254
254
254
254
254
254
254
254
254
254
254
254
254
254
254
254
254
254
254
254
0
0
205
205
0
254
254
254
254
254
254
254
254
254
254
254
254
254
254
254
254
254
254
254
254
254
254
254
254
254
254
254
254
254
254
254
254
254
254
254
254
254
254
0
0
205
205
205
205
205
205
205
205
205
205
205
205
205
205
205
205
205
205
205
205
205
205
205
205
205
0
0
0
254
254
254
254
0
0
0
0
0
0
0
0
0
0
0
0
0
0
0
0
0
0
0
0
0
254
254
254
254
254
254
254
254
254
254
254
254
254
254
254
254
254
254
254
254
254
254
254
254
254
254
254
254
254
0
0
205
205
0
0
254
254
254
254
254
254
254
254
254
254
254
254
254
254
254
254
254
254
254
254
254
254
254
254
254
254
254
254
254
254
254
254
254
254
254
254
254
0
0
205
205
205
205
205
205
205
205
205
205
205
205
205
205
205
205
205
205
205
205
205
205
205
205
0
0
254
0
254
254
254
254
0
0
0
0
0
0
0
0
0
0
0
0
0
0
0
0
0
0
0
0
0
254
254
254
254
254
254
254
254
254
254
254
254
254
254
254
254
254
254
254
254
254
254
254
254
254
254
254
254
254
254
0
0
205
0
0
254
254
254
254
254
254
254
254
254
254
254
254
254
254
254
254
254
254
254
254
254
254
254
254
254
254
254
254
254
254
254
254
254
254
254
254
254
0
0
0
254
0
205
205
205
205
205
205
205
205
205
205
205
205
205
205
205
205
205
205
205
205
205
0
0
0
0
254
254
254
254
0
0
0
0
0
0
0
0
0
0
0
0
0
0
0
0
0
0
0
0
0
254
254
254
254
254
254
254
254
254
254
254
254
254
254
254
254
254
254
254
254
254
254
254
254
254
254
254
254
254
254
0
0
205
0
0
254
254
254
254
254
254
254
254
254
254
254
254
254
254
254
254
254
254
254
254
254
254
254
254
254
254
254
254
254
254
254
254
254
0
0
0
0
0
0
0
0
0
205
205
205
205
205
205
205
205
205
205
205
205
205
205
205
205
205
205
205
205
205
0
0
0
254
254
254
254
254
0
0
0
0
0
0
0
0
0
0
0
0
0
0
0
0
0
0
0
0
0
254
254
254
254
254
254
254
254
254
254
254
254
254
254
254
254
254
254
254
254
254
254
254
254
254
254
254
254
254
254
0
0
205
0
0
254
254
254
254
254
254
254
254
254
254
254
254
254
254
254
254
254
254
254
254
254
0
0
0
0
0
0
0
0
0
0
0
0
0
0
0
0
0
0
0
0
205
205
205
205
205
205
205
205
205
205
205
205
205
205
205
205
205
205
205
205
205
205
205
0
0
0
254
254
254
254
0
0
0
0
0
0
0
0
0
0
0
0
0
0
0
0
0
0
0
0
0
254
254
254
254
254
254
254
254
254
254
254
254
254
254
254
254
254
254
254
254
254
254
254
254
254
254
254
254
254
254
0
0
205
0
0
254
254
254
254
254
254
254
254
254
254
254
254
0
0
0
0
0
0
0
0
0
0
0
0
0
0
0
0
0
0
0
0
0
0
0
0
0
0
0
205
205
205
205
205
205
205
205
205
205
205
205
205
205
205
205
205
205
205
205
205
205
205
205
205
205
0
0
254
254
254
254
0
0
0
0
0
0
0
0
0
0
0
0
0
0
0
0
0
0
0
0
0
254
254
254
254
254
254
254
254
254
254
254
254
254
254
254
254
254
254
254
254
254
254
254
254
254
254
254
254
254
254
0
0
205
0
0
0
0
0
0
0
0
0
0
0
0
0
0
0
0
0
0
205
205
0
205
205
205
0
0
0
0
0
0
205
0
205
0
205
205
205
205
205
205
205
205
205
205
205
205
205
205
205
205
205
205
205
205
205
205
205
205
205
205
205
205
205
205
205
205
0
0
0
254
0
254
254
0
0
0
0
0
0
0
0
0
0
0
0
0
0
0
0
0
0
0
0
0
254
254
254
254
254
254
254
254
254
254
254
254
254
254
254
254
254
254
254
254
254
254
254
254
254
254
254
254
254
254
0
0
0
0
0
0
0
0
0
0
0
0
205
205
205
205
205
205
205
205
205
205
205
205
205
205
205
205
205
205
205
205
205
205
205
205
205
205
205
205
205
205
205
205
205
205
205
205
205
205
205
205
205
205
205
205
205
205
205
205
205
205
205
205
205
205
205
205
205
205
0
0
0
254
0
0
0
0
0
0
0
0
0
0
0
0
0
0
0
0
0
0
0
0
0
0
0
254
254
254
254
254
254
254
254
254
254
254
254
254
254
254
254
254
254
254
254
254
254
0
0
0
0
0
0
0
0
0
0
0
205
205
205
205
205
205
205
205
205
205
205
205
205
205
205
205
205
205
205
205
205
205
205
205
205
205
205
205
205
205
205
205
205
205
205
205
205
205
205
205
205
205
205
205
205
205
205
205
205
205
205
205
205
205
205
205
205
205
205
205
205
205
205
205
205
205
205
205
205
0
0
0
0
0
0
0
0
0
0
0
0
0
0
0
0
0
0
0
0
0
0
0
0
0
254
254
254
254
254
254
254
254
254
254
254
254
254
254
0
0
0
0
0
0
0
0
0
0
0
0
205
205
205
205
205
205
205
205
205
205
205
205
205
205
205
205
205
205
205
205
205
205
205
205
205
205
205
205
205
205
205
205
205
205
205
205
205
205
205
205
205
205
205
205
205
205
205
205
205
205
205
205
205
205
205
205
205
205
205
205
205
205
205
205
205
205
205
205
205
205
205
205
205
205
205
205
205
205
0
0
0
0
0
0
0
0
0
0
0
0
0
0
0
0
0
0
0
0
0
0
0
254
254
254
254
254
254
0
0
0
0
0
0
0
0
0
0
0
0
0
0
0
0
205
205
205
205
205
205
205
205
205
205
205
205
205
205
205
205
205
205
205
205
205
205
205
205
205
205
205
205
205
205
205
205
205
205
205
205
205
205
205
205
205
205
205
205
205
205
205
205
205
205
205
205
205
205
205
205
205
205
205
205
205
205
205
205
205
205
205
205
205
205
205
205
205
205
205
205
205
205
205
205
205
205
0
0
0
0
0
0
0
0
0
0
0
0
0
0
0
0
0
0
0
0
0
0
0
0
0
0
0
0
0
0
0
0
0
0
0
205
0
205
205
205
205
205
205
205
205
205
205
205
205
205
205
205
205
205
205
205
205
205
205
205
205
205
205
205
205
205
205
205
205
205
205
205
205
205
205
205
205
205
205
205
205
205
205
205
205
205
205
205
205
205
205
205
205
205
205
205
205
205
205
205
205
205
205
205
205
205
205
205
205
205
205
205
205
205
205
205
205
205
205
205
205
205
205
205
205
205
205
0
0
0
0
0
0
0
0
0
0
0
0
0
0
0
0
0
0
0
0
0
0
0
0
0
0
0
0
0
0
205
205
205
205
205
205
205
205
205
205
205
205
205
205
205
205
205
205
205
205
205
205
205
205
205
205
205
205
205
205
205
205
205
205
205
205
205
205
205
205
205
205
205
205
205
205
205
205
205
205
205
205
205
205
205
205
205
205
205
205
205
205
205
205
205
205
205
205
205
205
205
205
205
205
205
205
205
205
205
205
205
205
205
205
205
205
205
205
205
205
205
205
205
205
205
205
205
0
0
0
254
0
0
0
0
0
0
0
0
0
0
0
0
0
0
0
0
0
0
0
0
205
205
205
205
205
205
205
205
205
205
205
205
205
205
205
205
205
205
205
205
205
205
205
205
205
205
205
205
205
205
205
205
205
205
205
205
205
205
205
205
205
205
205
205
205
205
205
205
205
205
205
205
205
205
205
205
205
205
205
205
205
205
205
205
205
205
205
205
205
205
205
205
205
205
205
205
205
205
205
205
205
205
205
205
205
205
205
205
205
205
205
205
205
205
205
205
205
205
205
205
205
205
205
205
0
0
0
0
0
0
0
0
0
254
254
0
0
0
0
0
0
0
254
0
0
205
205
205
205
205
205
205
205
205
205
205
205
205
205
205
205
205
205
205
205
205
205
205
205
205
205
205
205
205
205
205
205
205
205
205
205
205
205
205
205
205
205
205
205
205
205
205
205
205
205
205
205
205
205
205
205
205
205
205
205
205
205
205
205
205
205
205
205
205
205
205
205
205
205
205
205
205
205
205
205
205
205
205
205
205
205
205
205
205
205
205
205
205
205
205
205
205
205
205
205
205
205
205
205
254
254
254
254
205
205
0
254
254
254
254
0
0
0
0
0
205
205
0
254
205
205
205
205
205
205
205
205
205
205
205
205
205
205
205
205
205
205
205
205
205
205
205
205
205
205
205
205
205
205
205
205
205
205
205
205
205
205
205
205
205
205
205
205
205
205
205
205
205
205
205
205
205
205
205
205
205
205
205
205
205
205
205
205
205
205
205
205
205
205
205
205
205
205
205
205
205
205
205
205
205
205
205
205
205
205
205
205
205
205
205
205
205
205
205
205
205
205
205
205
205
205
205
205
205
0
254
205
205
205
205
205
205
0
0
0
0
0
0
0
205
205
205
205
205
205
205
205
205
205
205
205
205
205
205
205
205
205
205
205
205
205
205
205
205
205
205
205
205
205
205
205
205
205
205
205
205
205
205
205
205
205
205
205
205
205
205
205
205
205
205
205
205
205
205
205
205
205
205
205
205
205
205
205
205
205
205
205
205
205
205
205
205
205
205
205
205
205
205
205
205
205
205
205
205
205
205
205
205
205
205
205
205
205
205
205
205
205
205
205
205
205
205
205
205
205
205
205
205
205
205
205
205
205
205
205
205
205
205
205
205
0
205
205
205
205
205
205
205
205
205
205
205
205
205
205
205
205
205
205
205
205
205
205
205
205
205
205
205
205
205
205
205
205
205
205
205
205
205
205
205
205
205
205
205
205
205
205
205
205
205
205
205
205
205
205
205
205
205
205
205
205
205
205
205
205
205
205
205
205
205
205
205
205
205
205
205
205
205
205
205
205
205
205
205
205
205
205
205
205
205
205
205
205
205
205
205
205
205
205
205
205
205
205
205
205
205
205
205
205
205
205
205
205
205
205
205
205
205
205
205
205
205
205
205
205
205
205
205
205
205
205
205
205
205
205
205
205
205
205
205
205
205
205
205
205
205
205
205
205
205
205
205
205
205
205
205
205
205
205
205
205
205
205
205
205
205
205
205
205
205
205
205
205
205
205
205
205
205
205
205
205
205
205
205
205
205
205
205
205
205
205
205
205
205
205
205
205
205
205
205
205
205
205
205
205
205
205
205
205
205
205
205
205
205
205
205
205
205
205
205
205
205
205
205
205
205
205
205
205
205
205
205
205
205
205
205
205
205
205
205
205
205
205
205
205
205
205
205
205
205
205
205
205
205
205
205
205
205
205
205
205
205
205
205
205
205
205
205
205
205
205
205
205
205
205
205
205
205
205
205
205
205
205
205
205
205
205
205
205
205
205
205
205
205
205
205
205
205
205
205
205
205
205
205
205
205
205
205
205
205
205
205
205
205
205
205
205
205
205
205
205
205
205
205
205
205
205
205
205
205
205
205
205
205
205
205
205
205
205
205
205
205
205
205
205
205
205
205
205
205
205
205
205
205
